<svg width="190" height="133" viewBox="0 0 190 133" fill="none" xmlns="http://www.w3.org/2000/svg">
<path d="M169.672 38.8099C170.78 38.8099 171.877 38.5916 172.901 38.1676C173.925 37.7435 174.855 37.1219 175.639 36.3383C176.422 35.5547 177.044 34.6244 177.468 33.6006C177.892 32.5768 178.11 31.4794 178.11 30.3713C178.11 29.2631 177.892 28.1658 177.468 27.1419C177.044 26.1181 176.422 25.1878 175.639 24.4042C174.855 23.6206 173.925 22.9991 172.901 22.575C171.877 22.1509 170.78 21.9326 169.672 21.9326C167.434 21.9326 165.287 22.8217 163.705 24.4042C162.122 25.9868 161.233 28.1332 161.233 30.3713C161.233 32.6093 162.122 34.7557 163.705 36.3383C165.287 37.9208 167.434 38.8099 169.672 38.8099Z" stroke="#4485C0" stroke-width="3"/>
<path d="M151.589 60.2682V61.7148H187.755V60.2682C187.755 54.8675 187.755 52.1671 186.703 50.1032C185.779 48.2887 184.303 46.8133 182.489 45.8887C180.425 44.8375 177.725 44.8375 172.324 44.8375H167.02C161.619 44.8375 158.918 44.8375 156.855 45.8887C155.04 46.8133 153.565 48.2887 152.64 50.1032C151.589 52.1671 151.589 54.8675 151.589 60.2682Z" stroke="#4485C0" stroke-width="3"/>
<path d="M77.7331 110.301H92.6012M92.6012 110.301H163.325V88.1994H72.5092M92.6012 110.301V132H66.4816H120.73M21.4755 51.6319V1H163.325V21.4939M72.5092 28.727H115.104M62.4632 18.681H124.347V51.6319H62.4632V18.681Z" stroke="#787878" stroke-width="2"/>
<path d="M15.046 78.555V105.076M27.5031 78.555V105.076M52.819 78.555V105.076M62.4632 78.555V105.076M5 110.3H72.5092M5 72.9293L39.1564 48.417L72.5092 72.9293H5Z" stroke="#4485C0" stroke-width="3"/>
</svg>
