<svg width="158" height="138" viewBox="0 0 158 138" fill="none" xmlns="http://www.w3.org/2000/svg">
<path d="M86.2381 21.4478C87.2332 21.4478 88.2186 21.248 89.138 20.8599C90.0574 20.4717 90.8927 19.9028 91.5964 19.1855C92.3 18.4683 92.8582 17.6168 93.2391 16.6797C93.6199 15.7426 93.8159 14.7382 93.8159 13.7239C93.8159 12.7096 93.6199 11.7052 93.2391 10.7681C92.8582 9.83099 92.3 8.97951 91.5964 8.26228C90.8927 7.54505 90.0574 6.97611 89.138 6.58795C88.2186 6.19979 87.2332 6 86.2381 6C84.2283 6 82.3009 6.81377 80.8798 8.26228C79.4587 9.7108 78.6603 11.6754 78.6603 13.7239C78.6603 15.7724 79.4587 17.737 80.8798 19.1855C82.3009 20.634 84.2283 21.4478 86.2381 21.4478Z" stroke="#4485C0" stroke-width="3"/>
<path d="M70 41.0886V42.4127H102.476V41.0886C102.476 36.1453 102.476 33.6737 101.532 31.7846C100.702 30.1237 99.3771 28.7734 97.7476 27.9271C95.8943 26.9649 93.4695 26.9649 88.6197 26.9649H83.8565C79.0067 26.9649 76.5818 26.9649 74.7285 27.9271C73.0991 28.7734 71.7742 30.1237 70.944 31.7846C70 33.6737 70 36.1453 70 41.0886Z" stroke="#4485C0" stroke-width="3"/>
<path d="M16.2699 57.7143V1.12695H157V98.5555M42.3493 113.81H87.127M87.127 113.81H157V98.5555M87.127 113.81V136.444H59.5715H87.3731H115.175M42.3493 98.5555H157M64.0001 57.7143H109.27M54.6509 74.4444V88.2222H119.111V74.4444H54.6509ZM54.6509 51.3174V65.0952H119.111V51.3174H54.6509Z" stroke="#8A8A8A" stroke-width="2"/>
<path d="M18.2381 90.6829V95.1115M18.2381 95.1115C17.4228 95.1115 16.7619 95.7724 16.7619 96.5877C16.7619 97.4029 17.4228 98.0639 18.2381 98.0639C19.0534 98.0639 19.7143 97.4029 19.7143 96.5877C19.7143 95.7724 19.0534 95.1115 18.2381 95.1115ZM2 83.3019V105.445H34.4762V83.3019H2ZM7.90476 83.3019C7.90476 74.4448 7.90476 68.54 18.2381 68.54C28.5714 68.54 28.5714 74.4448 28.5714 83.3019H7.90476Z" stroke="#4485C0" stroke-width="3"/>
</svg>
