<svg width="133" height="143" viewBox="0 0 133 143" fill="none" xmlns="http://www.w3.org/2000/svg">
<path d="M74.0164 134.67H132V7.0367H104.082V1H56.4066V7.0367H27.2V66.1101M34.9311 61.7982V14.367H56.4066V21.2661H104.082V14.367H123.839V126.046H74.0164M1 93.7064V76.8899H67.5738V93.7064M1 93.7064V142H67.5738V93.7064M1 93.7064H67.5738M15.6033 85.5138L13.0262 83.3578V71.7156M33.2131 85.5138L30.6361 83.3578V71.7156M50.823 85.5138L48.2459 83.3578V71.7156M57.6951 10.9174H101.934" stroke="#898989" stroke-width="2"/>
<path d="M77.0229 99.7428H110.095M77.0229 85.5134H110.095M77.0229 73.44H110.095M51.6819 59.2106H110.095M51.6819 46.7061H87.7606" stroke="#4485C0" stroke-width="3"/>
<path d="M29.0508 113.541V104.055H38.5V113.541H29.0508Z" stroke="#4485C0" stroke-width="3"/>
<path d="M46.9574 113.541V104.055H56.4065V113.541H46.9574Z" stroke="#4485C0" stroke-width="3"/>
<path d="M46.9574 130.789V121.302H56.4065V130.789H46.9574Z" stroke="#4485C0" stroke-width="3"/>
<path d="M29.0508 130.789V121.302H38.5V130.789H29.0508Z" stroke="#4485C0" stroke-width="3"/>
<path d="M10.8787 130.789V121.302H20.3278V130.789H10.8787Z" stroke="#4485C0" stroke-width="3"/>
</svg>
