<svg width="27" height="14" viewBox="0 0 27 14" fill="none" xmlns="http://www.w3.org/2000/svg">
<path d="M21.3749 6.75C19.5141 6.75 17.9999 8.26427 17.9999 10.125C17.9999 11.9857 19.5141 13.5 21.3749 13.5C23.2356 13.5 24.7499 11.9857 24.7499 10.125C24.7499 8.26427 23.2357 6.75 21.3749 6.75ZM21.3749 12.375C20.134 12.375 19.1249 11.3659 19.1249 10.125C19.1249 8.88411 20.134 7.87498 21.3749 7.87498C22.6158 7.87498 23.6249 8.88411 23.6249 10.125C23.6249 11.3659 22.6158 12.375 21.3749 12.375Z" fill="#4485C0"/>
<path d="M4.49988 6.75C2.63915 6.75 1.12488 8.26427 1.12488 10.125C1.12488 11.9857 2.63915 13.5 4.49988 13.5C6.36061 13.5 7.87488 11.9857 7.87488 10.125C7.87488 8.26427 6.36066 6.75 4.49988 6.75ZM4.49988 12.375C3.25899 12.375 2.24986 11.3659 2.24986 10.125C2.24986 8.88411 3.25899 7.87498 4.49988 7.87498C5.74077 7.87498 6.7499 8.88411 6.7499 10.125C6.7499 11.3659 5.74077 12.375 4.49988 12.375Z" fill="#4485C0"/>
<path d="M18.5625 10.125H7.31252C7.00202 10.125 6.75 10.377 6.75 10.6875C6.75 10.998 7.00202 11.25 7.31252 11.25H18.5625C18.873 11.25 19.125 10.998 19.125 10.6875C19.125 10.377 18.873 10.125 18.5625 10.125Z" fill="#4485C0"/>
<path d="M21.0172 3.37727C20.1937 2.72025 16.4329 0 10.6875 0C9.60077 0 6.82763 0.111375 4.32902 1.12498H1.6875C1.46027 1.12498 1.25439 1.26225 1.16775 1.47261C1.08 1.68297 1.12836 1.92375 1.28925 2.08575L1.83938 2.63477C0.617625 3.73048 0 5.11202 0 6.75C0 8.68161 0.174393 11.25 1.6875 11.25C1.998 11.25 2.25002 10.998 2.25002 10.6875C2.25002 10.377 1.998 10.125 1.6875 10.125C1.68302 10.1239 1.12498 9.81339 1.12498 6.75C1.12498 5.25488 1.74261 4.07136 3.01161 3.12863C3.14323 3.03075 3.22534 2.88114 3.23773 2.71798C3.25012 2.55488 3.19048 2.39509 3.07463 2.27923L3.04536 2.24996H4.44034C4.51459 2.24996 4.58884 2.23536 4.65634 2.20609C6.99521 1.23071 9.65361 1.12498 10.6875 1.12498C16.6432 1.12498 20.4064 4.33012 20.4435 4.36161C20.5458 4.45046 20.6764 4.49998 20.8125 4.49998C24.4608 4.49998 25.8671 6.83548 25.875 7.31246V9.56248C25.875 9.85611 25.4419 10.1103 25.3124 10.125H24.1875C23.877 10.125 23.6249 10.377 23.6249 10.6875C23.6249 10.998 23.877 11.25 24.1875 11.25H25.3125C25.992 11.25 27 10.5413 27 9.56254V7.31252C27 6.24602 25.1584 3.46613 21.0172 3.37727Z" fill="#4485C0"/>
<path fill-rule="evenodd" clip-rule="evenodd" d="M12.4607 2.38811C12.5663 2.28988 12.708 2.23999 12.8518 2.25037C13.696 2.31134 14.9432 2.57428 15.9985 3.03377C16.5262 3.26351 17.0352 3.5549 17.423 3.91818C17.8123 4.28279 18.1168 4.75727 18.1323 5.3384C18.136 5.47846 18.083 5.61408 17.9852 5.71446C17.8875 5.81485 17.7533 5.87147 17.6132 5.87147H12.8144C12.5276 5.87147 12.2952 5.639 12.2952 5.35224V2.76826C12.2952 2.62405 12.3551 2.48634 12.4607 2.38811ZM13.3336 3.35085V4.83301H16.8626C16.8196 4.78163 16.77 4.72933 16.7131 4.6761C16.4444 4.42442 16.053 4.19011 15.584 3.9859C14.8589 3.67021 14.0186 3.45632 13.3336 3.35085Z" fill="#4485C0"/>
<path fill-rule="evenodd" clip-rule="evenodd" d="M10.6369 2.41448C10.5314 2.31625 10.3897 2.26635 10.2459 2.27674C10.0884 2.28812 9.89672 2.29597 9.67207 2.30518C9.60604 2.30789 9.53716 2.31071 9.46545 2.31378C9.15608 2.327 8.80601 2.34434 8.44759 2.37612C7.74692 2.43824 6.9503 2.55977 6.33984 2.85433C5.1749 3.41644 4.98572 4.60204 4.96538 5.36477C4.96165 5.50483 5.01468 5.64045 5.11242 5.74083C5.21016 5.84122 5.34432 5.89784 5.48443 5.89784H10.2833C10.57 5.89784 10.8025 5.66537 10.8025 5.37861V2.79462C10.8025 2.65042 10.7425 2.51271 10.6369 2.41448ZM9.76403 3.34077V4.85938H6.05564C6.1426 4.3936 6.35072 4.00211 6.79113 3.7896C7.22047 3.58244 7.85494 3.4712 8.5393 3.41052C8.87341 3.3809 9.20435 3.36435 9.50979 3.35129C9.5749 3.34851 9.63945 3.34587 9.70293 3.34327C9.72342 3.34243 9.74379 3.3416 9.76403 3.34077Z" fill="#4485C0"/>
</svg>
