<svg width="46" height="37" viewBox="0 0 46 37" fill="none" xmlns="http://www.w3.org/2000/svg">
<path d="M39.7676 23.7101C39.5457 22.1676 38.3557 20.9651 36.8236 20.6067C30.8685 19.2099 29.3757 15.7782 29.1238 11.9718C28.0677 11.7753 26.189 11.5625 23 11.5625C19.811 11.5625 17.9323 11.7753 16.8762 11.9718C16.6244 15.7782 15.1316 19.2099 9.17648 20.6067C7.64438 20.9674 6.45429 22.1676 6.23245 23.7101L5.08395 31.6697C4.67955 34.4724 6.73622 37 9.59705 37H36.403C39.2615 37 41.3205 34.4724 40.9161 31.6697L39.7676 23.7101ZM23 31.2002C19.7764 31.2002 17.1628 28.6102 17.1628 25.419C17.1628 22.2277 19.7764 19.6377 23 19.6377C26.2237 19.6377 28.8372 22.2277 28.8372 25.419C28.8372 28.6102 26.2213 31.2002 23 31.2002ZM45.993 9.25C45.9376 5.78125 37.1147 0.0023125 23 0C8.883 0.0023125 0.0601552 5.78125 0.00700556 9.25C-0.0461441 12.7188 0.0555336 17.2327 5.86502 16.4812C12.6612 15.6001 12.243 13.2252 12.243 9.83044C12.243 7.46244 17.7706 6.89125 23 6.89125C28.2295 6.89125 33.7547 7.46244 33.757 9.83044C33.757 13.2252 33.3388 15.6001 40.135 16.4812C45.9422 17.2327 46.0462 12.7188 45.993 9.25Z" fill="#4B4B4B"/>
</svg>
