<svg width="43" height="37" viewBox="0 0 43 37" fill="none" xmlns="http://www.w3.org/2000/svg">
<path d="M39.8537 7.42326C40.8187 8.04417 41.6129 8.90028 42.1629 9.91247C42.7128 10.9247 43.0007 12.0603 43 13.2143V25.9C43 32.0314 38.0707 37 31.9878 37H13.1098C11.9649 37.0007 10.8382 36.7105 9.83406 36.1562C8.82988 35.6019 7.98054 34.8013 7.36454 33.8286H31.9878C34.074 33.8286 36.0747 32.9932 37.5498 31.5063C39.0249 30.0195 39.8537 28.0028 39.8537 25.9V7.42326ZM37.7561 8.68971V24.8429C37.7562 26.598 37.09 28.2867 35.8941 29.5624C34.6983 30.8382 33.0634 31.6043 31.325 31.7037L30.939 31.7143H6.81707C5.07581 31.7144 3.40051 31.0429 2.13483 29.8375C0.86916 28.6321 0.10907 26.9842 0.010488 25.2319L0 24.8429V8.68971L18.1439 18.3182C18.3702 18.4385 18.6222 18.5014 18.878 18.5014C19.1339 18.5014 19.3859 18.4385 19.6122 18.3182L37.7561 8.68971ZM6.81707 1.27505e-08H30.939C32.4612 -9.34051e-05 33.9396 0.513143 35.1388 1.45799C36.3381 2.40283 37.1893 3.72495 37.5568 5.21383L18.878 15.1214L0.199268 5.21383C0.550917 3.79171 1.3442 2.52006 2.46338 1.58441C3.58256 0.648765 4.96907 0.0980747 6.42063 0.0126858L6.81707 1.27505e-08Z" fill="#4B4B4B"/>
</svg>
