<svg width="27" height="24" viewBox="0 0 27 24" fill="none" xmlns="http://www.w3.org/2000/svg">
<path fill-rule="evenodd" clip-rule="evenodd" d="M6.65548 13.9492H6.15698V12.75H6.65548V13.9492ZM8.64949 13.9492H7.65249V12.75H8.64949V13.9492ZM10.6435 13.9492H9.6465V12.75H10.6435V13.9492ZM12.139 13.9492H11.6405V12.75H12.139C12.3385 12.75 12.5622 12.7791 12.7912 12.8316L12.5285 14.0011C12.3648 13.9635 12.2309 13.9492 12.139 13.9492ZM14.0019 14.8522C13.8252 14.6415 13.5985 14.4639 13.3485 14.3219L13.93 13.2765C14.2767 13.4735 14.6216 13.7364 14.907 14.0768L14.0019 14.8522ZM14.3943 15.9317C14.3943 15.7895 14.3786 15.6594 14.351 15.54L15.5064 15.267C15.5551 15.4775 15.5808 15.6992 15.5808 15.9317C15.5808 16.1588 15.5562 16.3744 15.5087 16.5783L14.3538 16.303C14.3793 16.1937 14.3943 16.0706 14.3943 15.9317ZM13.3769 17.3542C13.6299 17.2411 13.8524 17.0953 14.0223 16.9157L14.8799 17.7445C14.5771 18.0645 14.2135 18.2916 13.8566 18.451L13.3769 17.3542ZM12.139 17.6272C12.2478 17.6272 12.3907 17.6173 12.554 17.5921L12.7336 18.7775C12.5167 18.8111 12.3136 18.8264 12.139 18.8264H11.6405V17.6272H12.139ZM5.54143 17.689C5.76123 17.6464 5.97093 17.6272 6.15698 17.6272H6.65548V18.8264H6.15698C6.0491 18.8264 5.91432 18.8378 5.76516 18.8668L5.54143 17.689ZM7.65249 17.6272H8.64949V18.8264H7.65249V17.6272ZM9.6465 17.6272H10.6435V18.8264H9.6465V17.6272ZM3.48603 19.0166C3.73799 18.6253 4.06202 18.3362 4.40076 18.1277L5.01791 19.1519C4.80867 19.2807 4.62246 19.4503 4.48047 19.6708L3.48603 19.0166ZM3 20.8089C3 20.597 3.01547 20.3954 3.04545 20.2038L4.2174 20.3912C4.19767 20.5173 4.18652 20.6561 4.18652 20.8089C4.18652 20.9621 4.19774 21.1024 4.21771 21.2306L3.04563 21.4171C3.01558 21.2241 3 21.0214 3 20.8089ZM4.38114 23.5165C4.04358 23.3005 3.72519 23.0022 3.47856 22.6073L4.48194 21.9672C4.62489 22.1961 4.81088 22.3721 5.01583 22.5033L4.38114 23.5165ZM6.18687 23.9905C5.98836 24.0092 5.77321 24.0001 5.55504 23.965L5.74127 22.7807C5.8829 22.8034 6.00324 22.8048 6.0917 22.7949L6.12424 22.7913H6.71294V23.9905H6.18687ZM8.93678 23.9905H7.82486V22.7913H8.93678V23.9905ZM11.1606 23.9905H10.0487V22.7913H11.1606V23.9905ZM13.3844 23.9905H12.2725V22.7913H13.3844V23.9905ZM15.6083 23.9905H14.4964V22.7913H15.6083V23.9905ZM17.8321 23.9905H16.7202V22.7913H17.8321V23.9905ZM19.5 23.9905H18.944V22.7913H19.5V23.9905Z" fill="#4485C0"/>
<path fill-rule="evenodd" clip-rule="evenodd" d="M4.125 4.92614C4.38725 4.92614 4.63636 4.75135 4.63636 4.5C4.63636 4.24864 4.38725 4.07386 4.125 4.07386C3.86275 4.07386 3.61364 4.24864 3.61364 4.5C3.61364 4.75135 3.86275 4.92614 4.125 4.92614ZM4.125 6C5.16053 6 6 5.32843 6 4.5C6 3.67157 5.16053 3 4.125 3C3.08947 3 2.25 3.67157 2.25 4.5C2.25 5.32843 3.08947 6 4.125 6Z" fill="#4485C0"/>
<path fill-rule="evenodd" clip-rule="evenodd" d="M5.92476 7.75009C6.65944 6.37536 7.05 5.2564 7.05 4.40186C7.05 2.60666 5.69762 1.23252 4.125 1.23252C2.55238 1.23252 1.2 2.60666 1.2 4.40186C1.2 5.2564 1.59056 6.37536 2.32524 7.75009C2.83635 8.70649 3.46299 9.69716 4.125 10.7103C4.78701 9.69716 5.41365 8.70649 5.92476 7.75009ZM4.84951 11.8118C6.56207 9.20819 8.25 6.5313 8.25 4.40186C8.25 1.97078 6.40317 0 4.125 0C1.84683 0 0 1.97078 0 4.40186C0 6.5313 1.68793 9.20819 3.40049 11.8118C3.40362 11.8166 3.40675 11.8214 3.40989 11.8261C3.49958 11.9625 3.58934 12.0986 3.67891 12.2345C3.68564 12.2447 3.69236 12.2549 3.69909 12.2651C3.78597 12.3968 3.87267 12.5283 3.95897 12.6595C4.03842 12.7802 4.21158 12.7802 4.29103 12.6595C4.37733 12.5283 4.46403 12.3968 4.55091 12.2651C4.55764 12.2549 4.56436 12.2447 4.57109 12.2345C4.66066 12.0986 4.75042 11.9625 4.84011 11.8261C4.84325 11.8214 4.84638 11.8166 4.84951 11.8118Z" fill="#4485C0"/>
<path fill-rule="evenodd" clip-rule="evenodd" d="M22.875 15.1577C23.1373 15.1577 23.3864 14.9392 23.3864 14.625C23.3864 14.3108 23.1373 14.0923 22.875 14.0923C22.6127 14.0923 22.3636 14.3108 22.3636 14.625C22.3636 14.9392 22.6127 15.1577 22.875 15.1577ZM22.875 16.5C23.9105 16.5 24.75 15.6605 24.75 14.625C24.75 13.5895 23.9105 12.75 22.875 12.75C21.8395 12.75 21 13.5895 21 14.625C21 15.6605 21.8395 16.5 22.875 16.5Z" fill="#4485C0"/>
<path fill-rule="evenodd" clip-rule="evenodd" d="M24.6748 18.2501C25.4094 16.8754 25.8 15.7564 25.8 14.9019C25.8 13.1067 24.4476 11.7325 22.875 11.7325C21.3024 11.7325 19.95 13.1067 19.95 14.9019C19.95 15.7564 20.3406 16.8754 21.0752 18.2501C21.5863 19.2065 22.213 20.1972 22.875 21.2103C23.537 20.1972 24.1637 19.2065 24.6748 18.2501ZM23.5995 22.3118C25.3121 19.7082 27 17.0313 27 14.9019C27 12.4708 25.1532 10.5 22.875 10.5C20.5968 10.5 18.75 12.4708 18.75 14.9019C18.75 17.0313 20.4379 19.7082 22.1505 22.3118C22.1536 22.3166 22.1568 22.3214 22.1599 22.3261C22.2496 22.4625 22.3393 22.5986 22.4289 22.7345C22.4356 22.7447 22.4424 22.7549 22.4491 22.7651C22.536 22.8968 22.6227 23.0283 22.709 23.1595C22.7884 23.2802 22.9616 23.2802 23.041 23.1595C23.1273 23.0283 23.214 22.8968 23.3009 22.7651C23.3076 22.7549 23.3144 22.7447 23.3211 22.7345C23.4107 22.5986 23.5004 22.4625 23.5901 22.3261C23.5932 22.3214 23.5964 22.3166 23.5995 22.3118Z" fill="#4485C0"/>
</svg>
