<svg width="26" height="27" viewBox="0 0 26 27" fill="none" xmlns="http://www.w3.org/2000/svg">
<path d="M11.265 6.30094L7.20544 1.41998C6.73745 0.857517 5.87945 0.860017 5.33586 1.42748L1.99747 4.91102C1.00388 5.94721 0.71948 7.48587 1.29428 8.71955C4.7282 16.1253 10.4623 22.1064 17.5674 25.6935C18.7506 26.2922 20.2266 25.996 21.2202 24.9598L24.5898 21.4438C25.1357 20.8751 25.1369 19.9764 24.5921 19.4889L19.8882 15.2829C19.3962 14.8429 18.6318 14.9004 18.1386 15.4154L16.5018 17.1228C16.418 17.2143 16.3077 17.2746 16.1878 17.2944C16.0679 17.3143 15.9451 17.2926 15.8382 17.2328C13.1627 15.628 10.9434 13.3133 9.40623 10.5244C9.34867 10.4129 9.32782 10.2847 9.3469 10.1597C9.36597 10.0346 9.42391 9.91946 9.51183 9.83198L11.1438 8.13083C11.6382 7.61336 11.6922 6.81341 11.265 6.29969V6.30094Z" stroke="white" stroke-linecap="round" stroke-linejoin="round"/>
</svg>
